<?xml version="1.0" encoding="UTF-8" standalone="no"?>
<!-- Created with Inkscape (http://www.inkscape.org/) -->
<svg
   xmlns:dc="http://purl.org/dc/elements/1.1/"
   xmlns:cc="http://creativecommons.org/ns#"
   xmlns:rdf="http://www.w3.org/1999/02/22-rdf-syntax-ns#"
   xmlns:svg="http://www.w3.org/2000/svg"
   xmlns="http://www.w3.org/2000/svg"
   xmlns:sodipodi="http://sodipodi.sourceforge.net/DTD/sodipodi-0.dtd"
   xmlns:inkscape="http://www.inkscape.org/namespaces/inkscape"
   width="1120.9"
   height="1120.9"
   id="svg2"
   sodipodi:version="0.32"
   inkscape:version="0.46"
   sodipodi:docname="holst.svg"
   sodipodi:docbase="/home/psycho/Desktop/jupiter-font"
   inkscape:output_extension="org.inkscape.output.svg.inkscape"
   version="1.0"
   sodipodi:modified="true">
  <defs
     id="defs4">
    <inkscape:perspective
       sodipodi:type="inkscape:persp3d"
       inkscape:vp_x="0 : 560.45001 : 1"
       inkscape:vp_y="0 : 1000 : 0"
       inkscape:vp_z="1120.9 : 560.45001 : 1"
       inkscape:persp3d-origin="560.45001 : 373.63334 : 1"
       id="perspective2671" />
  </defs>
  <sodipodi:namedview
     id="base"
     pagecolor="#ffffff"
     bordercolor="#666666"
     borderopacity="1.0"
     gridtolerance="10000"
     guidetolerance="10"
     objecttolerance="10"
     inkscape:pageopacity="0.0"
     inkscape:pageshadow="2"
     inkscape:zoom="0.1767767"
     inkscape:cx="-108.61804"
     inkscape:cy="889.87229"
     inkscape:document-units="px"
     inkscape:current-layer="layer1"
     inkscape:window-width="872"
     inkscape:window-height="723"
     inkscape:window-x="553"
     inkscape:window-y="176"
     showgrid="false" />
  <metadata
     id="metadata7">
    <rdf:RDF>
      <cc:Work
         rdf:about="">
        <dc:format>image/svg+xml</dc:format>
        <dc:type
           rdf:resource="http://purl.org/dc/dcmitype/StillImage" />
      </cc:Work>
    </rdf:RDF>
  </metadata>
  <g
     inkscape:label="Layer 1"
     inkscape:groupmode="layer"
     id="layer1"
     transform="translate(4.1351867e-6,68.537844)">
    <path
       style="opacity:1;fill:#000000;fill-opacity:1;fill-rule:nonzero;stroke:none;stroke-width:1;stroke-linecap:butt;stroke-linejoin:miter;marker:none;marker-start:none;marker-mid:none;marker-end:none;stroke-miterlimit:4;stroke-dasharray:none;stroke-dashoffset:0;stroke-opacity:1;visibility:visible;display:inline;overflow:visible;enable-background:accumulate"
       d="M 395.00558,-3.8377957 C 382.20998,-3.6003033 368.43916,-1.4263865 361.03063,5.222188 C 348.14202,22.407054 296.97955,92.41307 278.35827,109.41202 C 295.73471,94.787026 365.09229,39.357802 379.5281,24.097161 C 397.25789,5.3542285 397.75111,5.4898874 421.05304,2.9571992 C 435.61678,1.3741139 416.3317,-4.2335317 395.00558,-3.8377957 z M 513.54038,-1.1952945 C 540.89489,10.962241 573.27275,30.763019 559.5953,31.269649 C 545.91811,31.776166 490.85829,20.551204 476.16794,24.097161 C 461.4776,27.643118 445.24876,25.552078 419.92054,53.919613 C 394.59232,82.28727 351.41255,119.43671 340.26817,126.02199 C 329.12378,132.60727 361.03063,167.07544 361.03063,201.52186 C 361.03063,235.96817 386.84906,254.15542 383.3031,268.33925 C 379.75714,282.52296 421.80803,267.58425 421.80803,267.58425 L 453.89548,226.81432 C 457.2914,222.15664 462.64296,229.24916 458.80297,235.11931 L 430.11302,272.11425 L 455.40548,300.04919 L 483.71794,263.80926 C 483.71794,263.80926 470.62783,225.55933 490.89042,205.29685 C 511.15302,185.03426 536.04188,201.85092 539.58784,209.44935 C 543.1338,217.04789 560.58913,249.13825 562.6153,260.78926 C 564.6416,272.44016 545.4279,309.70605 537.32284,314.77167 C 529.2179,319.83729 567.24531,345.0522 571.29779,352.14412 C 575.3505,359.23603 560.22129,390.3845 560.7278,412.16651 C 561.23444,433.94781 555.20411,442.84713 553.17782,466.14941 C 551.15164,489.45169 548.64782,539.38429 548.64782,539.38429 L 547.89283,563.16614 L 576.96076,529.1912 C 576.96076,529.1912 562.10215,500.88902 583.37764,440.10135 C 604.65291,379.31465 611.04805,365.62151 632.83067,343.83913 C 640.41448,336.25435 647.9536,326.8095 654.72563,317.03667 C 649.85982,326.95192 646.1114,334.91625 646.42065,335.53414 C 636.28917,369.98009 614.74936,455.20616 608.67071,474.4544 C 646.1561,437.98252 674.69747,414.58385 700.02556,371.01908 C 725.35366,327.45433 776.14151,248.50924 778.16733,240.4043 C 780.19314,232.29924 759.80817,228.30499 757.78236,231.34432 C 755.75655,234.38376 740.47537,227.17249 731.35741,230.21182 C 722.23943,233.25126 711.06908,255.74297 695.87246,257.76927 C 690.69136,258.46 683.1305,267.57616 675.48749,279.28674 C 677.07118,275.18522 678.43017,271.34004 678.88559,268.33925 C 681.41756,251.62261 633.72338,182.65354 631.69757,161.88443 C 629.67175,141.11532 611.83204,48.292879 569.78779,22.964662 C 527.74306,-2.3635552 513.03387,0.32435975 513.54038,-1.1952945 z M 227.01835,190.57437 C 228.0315,190.06787 218.1165,204.34797 213.05088,234.7418 C 207.98526,265.13564 227.01835,256.11733 227.01835,238.8943 C 227.01835,221.67103 223.47239,223.50102 227.01835,190.57437 z M 510.52038,207.18435 C 507.4098,207.5801 504.87251,208.68227 502.5929,210.58185 C 493.47481,218.18027 490.63227,230.72146 491.64542,249.46428 C 491.1389,249.97091 500.31824,272.28204 501.8379,265.69675 C 503.35768,259.11136 509.73627,266.90017 514.29538,275.51173 C 518.85449,284.12344 521.56789,287.09487 525.62037,286.08172 C 529.67295,285.06857 527.35939,276.92172 530.90535,272.86924 C 534.45131,268.81665 538.33599,260.81849 537.32284,256.25927 C 536.3097,251.70029 532.33478,247.33808 525.24286,245.31179 C 518.15095,243.2855 517.24761,238.0295 527.88536,235.4968 C 538.52323,232.96388 538.00995,235.69673 548.64782,243.80179 C 546.62165,236.20324 544.9214,233.43837 537.32284,220.77433 C 531.62399,211.2762 519.8523,205.99713 510.52038,207.18435 z M 227.77336,247.95428 C 225.88549,252.53803 229.66024,264.25634 233.05834,272.11425 C 236.45644,279.97215 271.93982,319.47139 277.22577,327.98415 C 282.51173,336.49692 281.62446,346.07743 294.96824,355.54161 C 288.92716,347.35621 290.43982,338.99288 281.75577,324.58665 C 273.07171,310.18044 237.59015,281.35036 227.77336,247.95428 z M 811.38728,251.35178 C 802.2693,266.54863 807.5543,274.67918 816.67226,286.83672 C 825.79023,298.99425 835.92534,311.37418 835.92534,311.37418 L 789.11542,360.0716 C 789.11542,360.0716 850.86707,305.25349 855.9322,298.1617 C 860.99854,291.06978 819.49294,253.37807 811.38728,251.35178 z M 360.27563,319.30167 C 353.69627,319.71033 348.6071,325.43926 343.28817,329.87165 C 337.2094,334.93727 335.36067,341.83216 335.36067,340.81914 C 345.49204,339.80599 350.08315,338.76372 350.08315,345.34913 C 350.08315,351.93453 351.97065,358.80043 351.97065,360.8266 C 351.97065,362.85266 376.88561,329.49415 376.88561,329.49415 C 376.88561,329.49415 371.40069,320.82145 363.29563,319.30167 C 362.28248,319.11165 361.21557,319.24332 360.27563,319.30167 z M 382.54809,337.04414 L 362.16313,363.4691 C 362.16313,362.96222 353.71947,372.15158 355.74565,372.15158 C 357.77194,372.15158 365.88002,375.12302 374.99811,382.72157 C 384.11632,390.32012 379.26029,400.63147 381.7931,394.04655 C 384.32591,387.46078 387.83309,349.65975 387.83309,344.59413 C 387.83309,339.52851 382.54809,337.04414 382.54809,337.04414 z M 308.55822,342.70663 C 309.57137,343.71978 309.07451,342.17088 307.04822,347.23663 C 305.02205,352.30225 317.71823,358.79064 321.7707,362.3366 C 325.82329,365.88292 338.40978,360.57824 333.85068,360.0716 C 329.29157,359.56509 327.33329,353.43474 323.28069,348.36913 C 319.22823,343.30351 314.63699,342.2 308.55822,342.70663 z M 370.09062,413.29901 C 364.51849,414.31265 364.55726,420.59991 364.05062,420.09401 C 371.64906,418.06771 378.89246,424.59428 379.9056,429.15447 C 380.40173,431.38564 377.47197,436.50635 374.62061,441.23445 C 373.97952,441.38424 373.23733,441.23566 373.11062,440.85635 C 357.91375,451.49398 342.31379,461.08428 337.24818,466.14941 C 332.18256,471.21576 343.75602,474.37346 349.32815,467.28131 C 353.15992,462.40462 363.41981,454.38955 370.46812,448.40634 C 369.60815,449.95861 369.10562,451.45894 369.33562,451.80444 C 370.34876,453.32289 384.29691,464.37124 386.32309,466.90441 C 388.34939,469.43637 387.92345,469.23706 393.49558,458.59942 C 399.06783,447.96179 403.85597,441.42049 397.27057,431.79636 C 390.68529,422.17128 375.66287,412.28635 370.09062,413.29901 z M 933.69707,420.84901 C 933.69707,420.84901 912.75406,427.92474 901.61023,443.12134 C 890.46524,458.31917 845.83938,489.49639 849.89221,498.61436 C 853.94504,507.73353 868.39028,525.17823 868.39028,523.15121 C 860.28462,555.57146 843.96577,583.85311 806.48039,596.0092 C 768.99379,608.16769 707.09476,650.66869 683.79248,662.82598 C 660.4902,674.98327 735.67116,685.13771 749.85548,679.05905 C 764.03858,672.98041 796.31025,660.93909 812.52038,660.93909 C 828.7305,660.93909 889.38166,671.06211 833.66034,740.96896 C 777.9378,810.8746 725.23406,778.51958 698.89245,770.4139 C 672.55085,762.30945 608.78909,752.85203 609.8026,763.99581 C 610.81611,775.1408 633.16891,823.11161 639.24756,866.67565 C 645.3262,910.24089 635.17298,964.92575 623.01569,968.97858 C 610.85718,973.03021 605.966,952.61987 595.83573,913.10867 C 585.70425,873.59626 537.08415,813.96223 535.05784,792.68576 C 533.03167,771.4105 529.93098,872.39793 524.86536,882.53061 C 519.79975,892.66089 510.67852,906.17476 505.61289,908.20057 C 500.54727,910.2276 521.84537,972.99397 521.84537,994.27043 C 521.84537,1007.7421 519.85833,1025.0043 518.07038,1038.4386 C 504.34184,1018.1985 484.55834,986.13336 485.22793,966.71358 C 486.24108,937.33265 440.48308,903.95809 432.37802,839.11879 C 425.2861,863.43337 425.34433,891.85274 423.31804,910.08868 C 421.29185,928.32462 402.21684,951.67521 396.13807,961.80549 C 390.05931,971.93818 411.27683,1013.404 405.19806,1012.3904 L 516.18288,1051.6504 C 516.12006,1052.0684 515.80538,1055.0484 515.80538,1055.0484 L 525.62037,1055.0484 L 530.90535,1056.9354 C 530.90535,1056.9354 529.61376,1055.3372 529.39536,1055.0484 L 933.69707,1053.5385 L 933.69707,420.84901 z M 654.72563,457.08943 C 651.3529,457.80094 646.80721,464.18883 645.28755,475.58629 C 635.02318,486.53438 612.26692,524.28915 599.23262,545.42428 C 614.47756,526.04799 642.95007,494.51804 654.34753,485.40128 C 669.54415,473.24277 666.68603,476.49954 665.67251,471.43441 C 664.659,466.36806 660.40685,462.27295 657.36752,458.22132 C 656.6077,457.20781 655.84907,456.85145 654.72563,457.08943 z M 422.94053,473.3213 C 409.76985,474.84095 395.64123,480.50405 394.62808,478.98439 C 390.06909,483.54338 390.18844,486.6431 395.76057,489.17627 C 401.33283,491.70823 405.17874,493.6072 408.21805,489.55437 C 411.2575,485.50274 417.73611,481.89446 424.82803,479.36129 C 431.91994,476.82811 436.11121,471.80164 422.94053,473.3213 z M 434.64301,482.00438 C 433.56258,482.05874 432.63374,482.00197 432.00052,482.38128 C 429.46771,483.90215 427.91627,484.7707 427.09303,485.02439 C 420.00111,497.18168 420.29803,500.73077 420.29803,504.27624 C 420.29803,506.25615 421.52561,506.23441 424.07303,505.40935 C 424.12932,505.3417 424.39351,505.47579 424.45053,505.40935 C 426.58929,507.00632 441.96892,511.03016 450.87549,515.97933 C 459.9937,521.04446 456.37018,518.80967 462.95547,509.18434 C 469.54086,499.56022 474.68706,502.81578 470.12796,495.21626 C 465.92086,488.20504 458.25792,483.61343 453.51798,486.15627 C 448.32661,484.28267 440.17468,481.72051 434.64301,482.00438 z M 828.37535,530.7012 C 814.84214,528.3601 733.18148,547.11185 723.43052,558.63615 C 692.02257,600.17437 692.09747,612.24107 692.09747,612.24107 C 692.09747,612.24107 819.75386,543.47578 829.88535,533.3443 C 831.15133,532.07711 830.30814,531.03581 828.37535,530.7012 z M 701.15745,538.25119 C 686.97435,545.34213 658.55861,564.73654 649.44064,574.86923 C 640.32147,584.9995 641.13565,603.93608 641.13565,603.93608 L 624.90258,587.70421 C 602.6138,601.88852 574.31766,688.11905 574.31766,688.11905 C 574.31766,688.11905 631.99716,651.59885 644.15565,636.40102 C 645.16795,625.25724 689.00016,554.46131 701.15745,538.25119 z M 597.72262,547.31117 C 593.51516,552.76891 590.31759,557.14186 589.41763,559.39115 C 588.18307,562.47879 592.13442,556.34942 597.72262,547.31117 z M 432.37802,660.93909 C 428.1435,661.06713 419.9691,666.55145 412.37055,674.15096 C 400.21301,686.30825 428.50614,712.34303 443.703,741.72395 C 458.89998,771.10488 443.5224,749.99028 432.37802,756.06893 C 421.23363,762.14757 419.38189,745.03749 405.19806,718.69588 C 391.01435,692.35428 401.22314,695.15322 393.11808,697.17903 C 385.01314,699.20605 378.95068,687.10674 370.84562,688.11905 C 362.74067,689.13135 374.67883,744.75965 365.56063,722.47088 C 356.44254,700.18211 334.22818,680.94595 334.22818,680.94595 C 334.22818,680.94595 334.467,698.17563 336.49317,719.45089 C 338.51947,740.72736 328.26574,724.83615 316.1082,728.88898 C 303.95067,732.94181 311.00079,734.75018 302.89573,742.85585 C 294.79079,750.96031 262.44217,731.84736 252.31082,721.71589 C 242.17957,711.5844 234.04915,708.46777 216.82587,733.79587 C 216.82587,734.80817 224.73403,747.92461 227.77336,762.10892 C 230.8128,776.29323 227.97641,765.34877 255.33081,770.4139 C 282.68532,775.48025 284.80125,774.30728 320.2607,775.32079 C 355.72027,776.33431 339.27749,775.3824 356.50064,785.51388 C 373.72391,795.64415 367.82562,792.68576 367.82562,792.68576 C 367.82562,792.68576 352.62575,796.68062 348.57316,801.74575 C 344.52068,806.81209 347.6407,805.65967 355.74565,803.63385 C 363.85071,801.60683 372.77491,795.72509 385.94559,792.68576 C 399.11627,789.64765 418.29421,788.49523 436.53051,794.57387 C 454.76681,800.65252 448.94922,797.47427 455.02798,796.46076 C 461.10674,795.44725 465.97546,765.12891 465.97546,765.12891 C 465.97546,765.12891 444.73559,721.49724 440.68301,716.43089 C 436.63053,711.36575 430.59054,678.12406 434.64301,666.97907 C 436.16279,662.7994 434.9188,660.86177 432.37802,660.93909 z M 414.25804,801.74575 C 414.10221,801.88588 414.03831,802.33647 413.88055,802.50075 C 414.30274,802.39807 414.42693,802.25311 414.25804,801.74575 z M 413.88055,802.50075 C 411.76993,803.01777 402.76225,799.61122 390.09809,805.52075 C 374.90123,812.6129 363.57322,836.04082 359.52064,845.15878 C 355.46816,854.27675 368.64186,894.7326 378.7731,914.99557 C 388.90446,935.25852 387.95256,922.20369 388.96559,896.87559 C 389.96315,871.93769 403.78639,813.02483 413.88055,802.50075 z M 471.26045,804.01075 C 470.94384,804.23181 470.88295,804.76091 470.88295,805.52075 C 460.75171,812.6129 464.80418,845.30012 470.88295,862.52375 C 476.96172,879.74619 486.08295,898.84101 490.13542,886.68372 C 494.18802,874.52642 500.50548,876.72739 492.40042,859.50376 C 484.29536,842.28134 474.99667,850.41961 481.07543,834.2107 C 487.1542,817.99937 500.54426,828.88342 486.36043,815.71383 C 475.72268,805.83482 472.2103,803.34635 471.26045,804.01075 z"
       id="path2524" />
  </g>
</svg>
