<?xml version="1.0" encoding="UTF-8" standalone="no"?>
<!-- Created with Inkscape (http://www.inkscape.org/) -->
<svg
   xmlns:dc="http://purl.org/dc/elements/1.1/"
   xmlns:cc="http://creativecommons.org/ns#"
   xmlns:rdf="http://www.w3.org/1999/02/22-rdf-syntax-ns#"
   xmlns:svg="http://www.w3.org/2000/svg"
   xmlns="http://www.w3.org/2000/svg"
   xmlns:xlink="http://www.w3.org/1999/xlink"
   xmlns:sodipodi="http://sodipodi.sourceforge.net/DTD/sodipodi-0.dtd"
   xmlns:inkscape="http://www.inkscape.org/namespaces/inkscape"
   width="1024"
   height="1024"
   id="svg2"
   sodipodi:version="0.32"
   inkscape:version="0.46"
   sodipodi:docname="Hubble.svg"
   sodipodi:docbase="/home/psycho/Desktop/jupiter-font"
   inkscape:output_extension="org.inkscape.output.svg.inkscape"
   version="1.0"
   sodipodi:modified="true">
  <defs
     id="defs4">
    <inkscape:perspective
       sodipodi:type="inkscape:persp3d"
       inkscape:vp_x="0 : 50 : 1"
       inkscape:vp_y="0 : 1000 : 0"
       inkscape:vp_z="100 : 50 : 1"
       inkscape:persp3d-origin="50 : 33.333333 : 1"
       id="perspective2485" />
    <inkscape:perspective
       id="perspective3309"
       inkscape:persp3d-origin="372.04724 : 350.78739 : 1"
       inkscape:vp_z="744.09448 : 526.18109 : 1"
       inkscape:vp_y="0 : 1000 : 0"
       inkscape:vp_x="0 : 526.18109 : 1"
       sodipodi:type="inkscape:persp3d" />
  </defs>
  <sodipodi:namedview
     id="base"
     pagecolor="#ffffff"
     bordercolor="#666666"
     borderopacity="1.0"
     gridtolerance="10000"
     guidetolerance="10"
     objecttolerance="10"
     inkscape:pageopacity="0.0"
     inkscape:pageshadow="2"
     inkscape:zoom="0.5"
     inkscape:cx="959.62238"
     inkscape:cy="485.414"
     inkscape:document-units="px"
     inkscape:current-layer="layer1"
     inkscape:window-width="1167"
     inkscape:window-height="862"
     inkscape:window-x="2135"
     inkscape:window-y="124"
     showgrid="false"
     borderlayer="true" />
  <metadata
     id="metadata7">
    <rdf:RDF>
      <cc:Work
         rdf:about="">
        <dc:format>image/svg+xml</dc:format>
        <dc:type
           rdf:resource="http://purl.org/dc/dcmitype/StillImage" />
      </cc:Work>
    </rdf:RDF>
  </metadata>
  <g
     inkscape:label="Layer 1"
     inkscape:groupmode="layer"
     id="layer1"
     transform="translate(-1.5453229e-5,-952.36216)">
    <path
       style="fill:#000000;fill-opacity:1;fill-rule:nonzero;stroke:none;stroke-width:3.0999999;stroke-linecap:round;stroke-linejoin:round;marker:none;marker-start:none;marker-mid:none;marker-end:none;stroke-miterlimit:4;stroke-dashoffset:0;stroke-opacity:1;visibility:visible;display:inline;overflow:visible;enable-background:accumulate"
       d="M 18.267873,1947.3987 L 1018.2679,1947.3987 L 18.267873,1858.8526 L 18.267873,1947.3987 z"
       id="rect2507"
       sodipodi:nodetypes="cccc" />
    <path
       sodipodi:type="star"
       style="opacity:1;fill:#000000;fill-opacity:1;fill-rule:nonzero;stroke:none;stroke-width:3.0999999;stroke-linecap:round;stroke-linejoin:round;marker:none;marker-start:none;marker-mid:none;marker-end:none;stroke-miterlimit:4;stroke-dasharray:none;stroke-dashoffset:0;stroke-opacity:1;visibility:visible;display:inline;overflow:visible;enable-background:accumulate"
       id="path3280"
       sodipodi:sides="3"
       sodipodi:cx="48.875"
       sodipodi:cy="108.625"
       sodipodi:r1="2.5"
       sodipodi:r2="1.25"
       sodipodi:arg1="-1.5707963"
       sodipodi:arg2="-0.52359878"
       inkscape:flatsided="false"
       inkscape:rounded="0"
       inkscape:randomized="0"
       d="M 48.875,106.125 L 49.957532,108 L 51.040063,109.875 L 48.875,109.875 L 46.709936,109.875 L 47.792468,108 L 48.875,106.125 z"
       transform="matrix(14.397157,0,0,-14.397157,-234.66347,3424.5497)" />
    <image
       y="941.23132"
       x="1087.9421"
       id="image3311"
       height="1059.7427"
       width="1307.3848"
       sodipodi:absref="/home/sachimp/other-part/My Working Directory/Creative Projects/jupiter/jupiter-font/pastedpic_05022009_095932.png"
       xlink:href="pastedpic_05022009_095932.png"
       style="fill:#ff0000" />
    <path
       style="opacity:1;fill:#000000;fill-opacity:1;fill-rule:nonzero;stroke:none;stroke-width:1;stroke-linecap:butt;stroke-linejoin:miter;marker:none;marker-start:none;marker-mid:none;marker-end:none;stroke-miterlimit:4;stroke-dasharray:none;stroke-dashoffset:0;stroke-opacity:1;visibility:visible;display:inline;overflow:visible;enable-background:accumulate"
       d="M 221.25073,1274.7609 L 124.98565,1203.5404 C 111.00103,1191.5215 89.112457,1170.9939 95.842032,1158.9533 L 100.6525,1152.3443 L 98.375789,1149.953 L 101.25339,1147.8581 L 103.64472,1149.8818 C 118.80744,1135.8489 145.30263,1155.9016 161.76987,1166.7561 L 258.03495,1238.368 L 254.51306,1241.8899 L 267.03534,1246.1944 L 266.64402,1251.2816 L 284.25349,1259.108 L 283.47085,1263.4125 L 624.70317,1391.3746 C 631.78779,1380.3459 640.61758,1371.3238 645.83455,1371.4172 L 898.62821,1470.4219 C 899.72787,1468.8006 902.46609,1468.6687 904.30238,1469.4434 C 908.63789,1473.2651 906.28812,1489.5966 901.52458,1507.9866 C 897.29188,1524.3278 891.15342,1542.2947 886.10594,1554.5557 C 872.10361,1587.5345 859.43301,1621.1794 843.45189,1653.1683 C 833.58723,1673.6756 823.29284,1694.5822 816.45071,1693.083 L 513.56788,1571.3828 C 503.26284,1562.4725 505.14215,1549.3446 503.78484,1537.3378 L 183.32036,1405.486 C 183.44907,1384.5561 190.20557,1357.8688 198.96507,1332.5143 C 205.25451,1314.3096 211.58125,1295.4201 224.3813,1277.5001 L 228.29451,1272.0217 L 226.72922,1269.2824 L 221.25073,1274.7609 z"
       id="path3315"
       sodipodi:nodetypes="ccccccccccccccccccsccccccssccc" />
    <path
       style="opacity:1;fill:#000000;fill-opacity:1;fill-rule:nonzero;stroke:none;stroke-width:1;stroke-linecap:butt;stroke-linejoin:miter;marker:none;marker-start:none;marker-mid:none;marker-end:none;stroke-miterlimit:4;stroke-dasharray:none;stroke-dashoffset:0;stroke-opacity:1;visibility:visible;display:inline;overflow:visible;enable-background:accumulate"
       d="M 520.75002,1574.0506 L 476.00102,1700.5185 C 465.11596,1699.6684 453.13935,1698.2227 445.47795,1707.5623 C 436.38263,1718.6501 432.96299,1735.4379 443.91266,1753.3471 C 452.93113,1768.0976 471.84083,1766.8952 477.17498,1766.652 C 493.54342,1765.9055 502.73546,1753.2515 504.9588,1741.6073 C 507.58181,1716.9381 495.28677,1709.0518 481.47953,1702.8665 L 525.07422,1575.0388 L 520.75002,1574.0506 z"
       id="path3319"
       sodipodi:nodetypes="ccssscccc" />
    <path
       style="opacity:1;fill:#000000;fill-opacity:1;fill-rule:nonzero;stroke:none;stroke-width:1;stroke-linecap:butt;stroke-linejoin:miter;marker:none;marker-start:none;marker-mid:none;marker-end:none;stroke-miterlimit:4;stroke-dasharray:none;stroke-dashoffset:0;stroke-opacity:1;visibility:visible;display:inline;overflow:visible;enable-background:accumulate"
       d="M 591.04953,1379.2437 L 659.13948,1193.7573 C 657.22181,1192.5951 656.11516,1189.6698 657.18287,1182.0177 C 645.22379,1189.8917 635.91795,1192.459 627.0511,1194.1486 C 626.30754,1185.8665 638.79687,1163.6465 650.13907,1142.4942 C 654.28476,1134.7628 657.90384,1130.9988 661.4874,1128.0153 C 665.36285,1140.2309 667.13234,1152.845 666.18326,1165.9735 L 678.70555,1172.626 L 597.31067,1385.1135 L 591.04953,1379.2437 z"
       id="path3321"
       sodipodi:nodetypes="ccccsccccc" />
    <path
       style="opacity:1;fill:#ffffff;fill-opacity:1;fill-rule:nonzero;stroke:none;stroke-width:1;stroke-linecap:butt;stroke-linejoin:miter;marker:none;marker-start:none;marker-mid:none;marker-end:none;stroke-miterlimit:4;stroke-dasharray:none;stroke-dashoffset:0;stroke-opacity:1;visibility:visible;display:inline;overflow:visible;enable-background:accumulate"
       d="M 234.85368,1273.2387 C 229.24936,1278.7242 225.41922,1284.2098 223.98684,1289.6953 L 606.46516,1430.3373 C 607.86912,1424.3354 613.74868,1408.5926 618.43065,1403.0777 L 265.66761,1274.9451 L 257.60595,1276.7891 L 249.38148,1272.5388 L 242.36673,1275.2246 L 234.85368,1273.2387 z"
       id="path3323"
       sodipodi:nodetypes="ccccccccc" />
    <path
       style="opacity:1;fill:#ffffff;fill-opacity:1;fill-rule:nonzero;stroke:none;stroke-width:1;stroke-linecap:butt;stroke-linejoin:miter;marker:none;marker-start:none;marker-mid:none;marker-end:none;stroke-miterlimit:4;stroke-dasharray:none;stroke-dashoffset:0;stroke-opacity:1;visibility:visible;display:inline;overflow:visible;enable-background:accumulate"
       d="M 630.09979,1398.8043 C 623.83831,1406.7781 616.91543,1419.7989 614.3472,1434.3373 L 862.39524,1530.7259 C 869.49895,1514.3232 873.21617,1506.6649 880.85925,1492.3668 L 630.09979,1398.8043 z"
       id="path3325"
       sodipodi:nodetypes="ccccc" />
    <path
       style="opacity:1;fill:#ffffff;fill-opacity:1;fill-rule:nonzero;stroke:none;stroke-width:1;stroke-linecap:butt;stroke-linejoin:miter;marker:none;marker-start:none;marker-mid:none;marker-end:none;stroke-miterlimit:4;stroke-dasharray:none;stroke-dashoffset:0;stroke-opacity:1;visibility:visible;display:inline;overflow:visible;enable-background:accumulate"
       d="M 196.50137,1363.1092 L 567.08609,1500.2998 L 557.3261,1538.5408 L 190.64307,1390.0643 C 191.4806,1382.0328 193.21667,1371.7866 196.50137,1363.1092 z"
       id="path3327"
       sodipodi:nodetypes="ccccc" />
    <path
       style="opacity:1;fill:#ffffff;fill-opacity:1;fill-rule:nonzero;stroke:none;stroke-width:1;stroke-linecap:butt;stroke-linejoin:miter;marker:none;marker-start:none;marker-mid:none;marker-end:none;stroke-miterlimit:4;stroke-dasharray:none;stroke-dashoffset:0;stroke-opacity:1;visibility:visible;display:inline;overflow:visible;enable-background:accumulate"
       d="M 576.69551,1527.4725 L 827.15046,1626.8854 C 820.77526,1643.8826 816.46655,1662.2754 813.27177,1681.1693 L 564.52045,1582.8138 L 576.69551,1527.4725 z"
       id="path3329"
       sodipodi:nodetypes="ccccc" />
    <path
       style="opacity:1;fill:#000000;fill-opacity:1;fill-rule:nonzero;stroke:none;stroke-width:1;stroke-linecap:butt;stroke-linejoin:miter;marker:none;marker-start:none;marker-mid:none;marker-end:none;stroke-miterlimit:4;stroke-dasharray:none;stroke-dashoffset:0;stroke-opacity:1;visibility:visible;display:inline;overflow:visible;enable-background:accumulate"
       d="M 246.29532,1406.2448 C 240.49619,1404.643 234.7874,1403.2443 231.03376,1406.2448 L 215.77224,1418.3758 C 214.24657,1419.9509 213.70924,1421.9129 218.12016,1425.8109 L 503.78484,1542.0335 C 507.23173,1546.955 510.32764,1551.9156 520.22035,1556.121 L 828.19035,1655.908 C 829.53399,1656.1622 831.18063,1656.2112 834.94065,1653.3643 L 842.66925,1646.9076 C 845.45055,1642.5954 843.59602,1641.9921 842.66925,1640.6464 L 556.22193,1516.5975 L 562.87439,1512.6843 L 562.87439,1498.988 L 546.04756,1492.7269 L 537.4385,1500.1619 L 246.29532,1406.2448 z"
       id="path3317"
       sodipodi:nodetypes="cccccccccccccccc" />
  </g>
</svg>
