<?xml version="1.0" encoding="UTF-8" standalone="no"?>
<!-- Created with Inkscape (http://www.inkscape.org/) -->

<svg
   xmlns:dc="http://purl.org/dc/elements/1.1/"
   xmlns:cc="http://creativecommons.org/ns#"
   xmlns:rdf="http://www.w3.org/1999/02/22-rdf-syntax-ns#"
   xmlns:svg="http://www.w3.org/2000/svg"
   xmlns="http://www.w3.org/2000/svg"
   xmlns:xlink="http://www.w3.org/1999/xlink"
   xmlns:sodipodi="http://sodipodi.sourceforge.net/DTD/sodipodi-0.dtd"
   xmlns:inkscape="http://www.inkscape.org/namespaces/inkscape"
   width="1024"
   height="1024"
   id="svg2"
   sodipodi:version="0.32"
   inkscape:version="0.47pre4 r22446"
   sodipodi:docname="Saturn V.svg"
   inkscape:output_extension="org.inkscape.output.svg.inkscape"
   version="1.0"
   sodipodi:modified="true">
  <defs
     id="defs4">
    <inkscape:perspective
       sodipodi:type="inkscape:persp3d"
       inkscape:vp_x="0 : 50 : 1"
       inkscape:vp_y="0 : 1000 : 0"
       inkscape:vp_z="100 : 50 : 1"
       inkscape:persp3d-origin="50 : 33.333333 : 1"
       id="perspective2485" />
    <inkscape:perspective
       id="perspective3309"
       inkscape:persp3d-origin="372.04724 : 350.78739 : 1"
       inkscape:vp_z="744.09448 : 526.18109 : 1"
       inkscape:vp_y="0 : 1000 : 0"
       inkscape:vp_x="0 : 526.18109 : 1"
       sodipodi:type="inkscape:persp3d" />
    <inkscape:perspective
       id="perspective2866"
       inkscape:persp3d-origin="0.5 : 0.33333333 : 1"
       inkscape:vp_z="1 : 0.5 : 1"
       inkscape:vp_y="0 : 1000 : 0"
       inkscape:vp_x="0 : 0.5 : 1"
       sodipodi:type="inkscape:persp3d" />
  </defs>
  <sodipodi:namedview
     id="base"
     pagecolor="#ffffff"
     bordercolor="#666666"
     borderopacity="1.0"
     gridtolerance="10000"
     guidetolerance="10"
     objecttolerance="10"
     inkscape:pageopacity="0.0"
     inkscape:pageshadow="2"
     inkscape:zoom="0.125"
     inkscape:cx="2228.8979"
     inkscape:cy="1389.6298"
     inkscape:document-units="px"
     inkscape:current-layer="layer1"
     inkscape:window-width="1920"
     inkscape:window-height="1055"
     inkscape:window-x="1600"
     inkscape:window-y="120"
     showgrid="false"
     borderlayer="true"
     inkscape:window-maximized="1"
     showguides="true"
     inkscape:guide-bbox="true" />
  <metadata
     id="metadata7">
    <rdf:RDF>
      <cc:Work
         rdf:about="">
        <dc:format>image/svg+xml</dc:format>
        <dc:type
           rdf:resource="http://purl.org/dc/dcmitype/StillImage" />
        <dc:title />
      </cc:Work>
    </rdf:RDF>
  </metadata>
  <g
     inkscape:label="Layer 1"
     inkscape:groupmode="layer"
     id="layer1"
     transform="translate(-1.5453229e-5,-952.36216)">
    <path
       style="fill:none;stroke:#000000;stroke-width:9.1;stroke-linecap:butt;stroke-linejoin:miter;stroke-opacity:1;stroke-miterlimit:4;stroke-dasharray:none"
       d="m 492.81789,663.5324 -6.92462,105.58073 -11.78858,9.75305 0.76777,21.66295 22.30939,-2.24264"
       id="path2886"
       transform="translate(1.5453229e-5,952.36216)"
       sodipodi:nodetypes="ccccc" />
    <path
       style="fill:none;stroke:#000000;stroke-width:9.1;stroke-linecap:butt;stroke-linejoin:miter;stroke-opacity:1;stroke-miterlimit:4;stroke-dasharray:none"
       d="m 561.72096,676.27073 4.32843,91.449 15.05786,11.04939 -0.59771,12.28514 -22.24874,7.37868"
       id="path2888"
       transform="translate(1.5453229e-5,952.36216)"
       sodipodi:nodetypes="ccccc" />
    <path
       style="fill:none;stroke:#000000;stroke-width:9.1;stroke-linecap:butt;stroke-linejoin:miter;stroke-opacity:1;stroke-miterlimit:4;stroke-dasharray:none"
       d="m 491.96434,454.37523 -3.68198,43.96195 4.53553,86.06244"
       id="path2890"
       transform="translate(1.5453229e-5,952.36216)"
       sodipodi:nodetypes="ccc" />
    <path
       style="fill:none;stroke:#000000;stroke-width:9.1;stroke-linecap:butt;stroke-linejoin:miter;stroke-opacity:1;stroke-miterlimit:4;stroke-dasharray:none"
       d="m 508.4349,153.55765 -2.38908,47.90559 0.94974,89.45332 42.10839,0.43934 2.74264,-11.9221 -1.97487,-134.96194 -41.43682,9.08579 z"
       id="path2892"
       transform="translate(1.5453229e-5,952.36216)"
       sodipodi:nodetypes="ccccccc" />
    <image
       y="738.75397"
       x="-845.11859"
       id="image2868"
       height="1234.7554"
       width="989.91046"
       xlink:href="file:///home/sachimp/other-part/My%20Working%20Directory/Creative%20Projects/jupiter/jupiter-font/source-images/Skylab_launch_on_Saturn_V.jpg"
       style="fill:#000000" />
    <path
       style="fill:#000000;stroke:none"
       d="m 515.87502,1732.8622 c -0.6669,2.6457 -2.53725,11.1469 -2.5,15.625 6.94775,-0.9944 18.41689,-1.1673 25.75,0.5 -0.22521,-4.3998 -1.26224,-11.4878 -2,-16 l -21.25,-0.125 z"
       id="path3672"
       sodipodi:nodetypes="ccccc" />
    <path
       style="fill:#ffffff;stroke:none"
       d="m 474.37502,1745.2372 -1.75,9.125 17.25,-0.375 0.625,-7.125 -16.125,-1.625 z"
       id="path3712"
       sodipodi:nodetypes="ccccc" />
    <path
       sodipodi:nodetypes="ccccc"
       id="path3670"
       d="m 487.25002,1734.9872 c -0.6669,2.6457 -1.78725,11.0219 -1.75,15.5 6.94775,-0.9944 18.41689,-1.1673 25.75,0.5 -0.22521,-4.3998 -1.26224,-11.4878 -2,-16 l -22,0 z"
       style="fill:#000000;stroke:none" />
    <path
       style="fill:#000000;fill-opacity:1;fill-rule:nonzero;stroke:none;stroke-width:3.0999999;stroke-linecap:round;stroke-linejoin:round;marker:none;marker-start:none;marker-mid:none;marker-end:none;stroke-miterlimit:4;stroke-dashoffset:0;stroke-opacity:1;visibility:visible;display:inline;overflow:visible;enable-background:accumulate"
       d="M 18.267873,1947.3987 L 1018.2679,1947.3987 L 18.267873,1858.8526 L 18.267873,1947.3987 z"
       id="rect2507"
       sodipodi:nodetypes="cccc" />
    <path
       sodipodi:type="star"
       style="fill:#000000;fill-opacity:1;fill-rule:nonzero;stroke:none;stroke-width:3.0999999;marker:none;visibility:visible;display:inline;overflow:visible;enable-background:accumulate"
       id="path3280"
       sodipodi:sides="3"
       sodipodi:cx="48.875"
       sodipodi:cy="108.625"
       sodipodi:r1="2.5"
       sodipodi:r2="1.25"
       sodipodi:arg1="-1.5707963"
       sodipodi:arg2="-0.52359878"
       inkscape:flatsided="false"
       inkscape:rounded="0"
       inkscape:randomized="0"
       d="m 48.875,106.125 1.082532,1.875 1.082531,1.875 -2.165063,0 -2.165064,0 L 47.792468,108 48.875,106.125 z"
       transform="matrix(14.397268,0,0,-14.397157,14.492542,3446.5497)" />
    <path
       style="fill:#000000;stroke:none;stroke-width:1px;stroke-linecap:butt;stroke-linejoin:miter;stroke-opacity:1"
       d="M 504.5,115.375 511,90.374998 c 0,0 12.75,-25 14.625,-28.5 1.875,-3.5 5.5,-3.125 7.625,0.75 2.125,3.875 13.25,27.5 13.25,27.5 l 7.75,26.125002 -0.125,170.125 12.625,41.25 1.625,442.875 -4.875,14.25 c -10.5,-1.9375 -24.16272,-0.2491 -36.375,-0.375 -12.21228,-0.1259 -30.61953,-2.4147 -38.75,-1.375 l -1.625,-15.5 1.875,-295.125 -2.75,-8.25 0,-32.625 3.25,-9 0.5,-96 13.5,-41.5 -1.25,-1.5 0.875,-81.125 0.625,-2 1.125,-85 z"
       id="path2872"
       transform="translate(1.5453229e-5,952.36216)"
       sodipodi:nodetypes="ccsscccccczcccccccccccc" />
    <path
       style="fill:#000000;stroke:none;stroke-width:1px;stroke-linecap:butt;stroke-linejoin:miter;stroke-opacity:1"
       d="m 566.875,800.5 13.75,0.5 -0.5,-16.75 -17.875,-10.75 4.625,27 z"
       id="path3650"
       transform="translate(1.5453229e-5,952.36216)" />
    <path
       style="fill:#000000;stroke:none;stroke-width:1px;stroke-linecap:butt;stroke-linejoin:miter;stroke-opacity:1"
       d="m 540.75,782.375 c -0.6669,2.64577 -1.78725,11.02194 -1.75,15.5 6.94775,-0.99439 18.41689,-1.16724 25.75,0.5 -0.22521,-4.39979 -1.26224,-11.48776 -2,-16 l -22,0 z"
       id="path3668"
       transform="translate(1.5453229e-5,952.36216)"
       sodipodi:nodetypes="ccccc" />
    <path
       style="fill:#ffffff;stroke:none;stroke-width:1px;stroke-linecap:butt;stroke-linejoin:miter;stroke-opacity:1"
       d="m 527.75,681.75 c 4.5,-0.5 20.875,-0.25 27,2.125 0,2 0.25,52.125 0.25,52.125 l 6.25,28.8125 20,13.625 0,11.8125 -15.625,1.25 -2.6875,-6.9375 c -12.0625,-1.91667 -23.4375,0.0417 -35.75,-0.1875 L 527.4556,736.37876 527.75,681.75 z"
       id="path3646"
       transform="translate(1.5453229e-5,952.36216)"
       sodipodi:nodetypes="ccccccccccc" />
    <path
       style="fill:#000000;stroke:none;stroke-width:1px;stroke-linecap:butt;stroke-linejoin:miter;stroke-opacity:1"
       d="m 474.125,790.125 0.5,9.125 10,-0.5 1,-10.625 -11.5,2 z"
       id="path3652"
       transform="translate(1.5453229e-5,952.36216)" />
    <path
       style="fill:#ffffff;stroke:none;stroke-width:1px;stroke-linecap:butt;stroke-linejoin:miter;stroke-opacity:1"
       d="m 472.625,788.875 14.875,1.375 5.125,-25.25 5.75,-29.125 1.25,-52.875 c -4.1812,-0.0935 -10.0773,1.63475 -12.125,3.5 l -0.875,81.875 -13.875,9.25 -0.125,11.25 z"
       id="path3648"
       transform="translate(1.5453229e-5,952.36216)"
       sodipodi:nodetypes="ccccccccc" />
    <path
       style="fill:#ffffff;stroke:none;stroke-width:1px;stroke-linecap:butt;stroke-linejoin:miter;stroke-opacity:1"
       d="m 488.25,530.375 c 4.25,-3.375 11.625,-4.25 11.625,-4.25 l -0.375,-57 -2.875,-10.625 0.125,-2.5 c -2.27862,0.77862 -3.35836,0.35836 -7.75,3.25 l -0.75,71.125 z"
       id="path3654"
       transform="translate(1.5453229e-5,952.36216)"
       sodipodi:nodetypes="ccccccc" />
    <path
       style="fill:#ffffff;stroke:none;stroke-width:1px;stroke-linecap:butt;stroke-linejoin:miter;stroke-opacity:1"
       d="m 527.625,524.125 c 8.75,-0.75 22.75,1 27.375,2.5 -0.25,-5.75 0.25,-57.75 0.25,-57.75 L 554,457.25 l -0.125,-0.875 c -8.625,-2 -19.25,-2.625 -26.25,-2.25 l 0,70 z"
       id="path3656"
       transform="translate(1.5453229e-5,952.36216)"
       sodipodi:nodetypes="ccccccc" />
    <path
       style="fill:#ffffff;stroke:none;stroke-width:1px;stroke-linecap:butt;stroke-linejoin:miter;stroke-opacity:1"
       d="m 503.75,284.8125 c 9.4375,-3.375 19,-4.5625 24.3125,-4.125 0,3 -0.1875,19.375 -0.1875,19.375 -10.375,-0.116 -22.0625,1.21273 -31.125,6 l 7,-21.25 z"
       id="path3658"
       transform="translate(1.5453229e-5,952.36216)"
       sodipodi:nodetypes="ccccc" />
    <path
       style="fill:#ffffff;stroke:none;stroke-width:1px;stroke-linecap:butt;stroke-linejoin:miter;stroke-opacity:1"
       d="m 528.0625,300.3125 0.125,19.125 c 11.17838,-0.82147 27.03559,0.3204 38.4375,8.0625 l -7,-20.9375 c -8.20628,-5.276 -20.95391,-6.43763 -31.5625,-6.25 z"
       id="path3664"
       transform="translate(1.5453229e-5,952.36216)"
       sodipodi:nodetypes="ccccc" />
    <path
       style="fill:#ffffff;stroke:none;stroke-width:1px;stroke-linecap:butt;stroke-linejoin:miter;stroke-opacity:1"
       d="m 508.625,276.5 c 11.125,-3.8125 39.4375,-4.4375 45.4375,2.625 -0.125,-4.8125 0.0625,-98.875 0.0625,-98.875 -9.6241,-8.7173 -39.87611,-9.96804 -50.1875,-1.5 l -0.125,21.5 4.75,-2.3125 0.0625,78.5625 z"
       id="path3666"
       transform="translate(1.5453229e-5,952.36216)"
       sodipodi:nodetypes="ccccccc" />
    <path
       style="fill:#000000;stroke:#000000;stroke-width:1px;stroke-linecap:butt;stroke-linejoin:miter;stroke-opacity:1"
       d="m 496,797.25 -8.25,19 -4.5,36.25 34,-0.5 -3.75,-35.75 -4.75,-20 -12.75,1 z"
       id="path3680"
       transform="translate(1.5453229e-5,952.36216)" />
    <path
       style="fill:#000000;stroke:#000000;stroke-width:1px;stroke-linecap:butt;stroke-linejoin:miter;stroke-opacity:1"
       d="m 522.5,793.5 -7.25,23 -2.75,33.75 31,0.25 -2.75,-32.5 -6.5,-25 -11.75,0.5 z"
       id="path3682"
       transform="translate(1.5453229e-5,952.36216)"
       sodipodi:nodetypes="ccccccc" />
    <path
       style="fill:#000000;stroke:#000000;stroke-width:1px;stroke-linecap:butt;stroke-linejoin:miter;stroke-opacity:1"
       d="m 557.75,797.5 7,19.5 4.5,15.5 -2.5,0.5 3.75,21.5 -30,-2.75 0,-35.5 3,-20 14.25,1.25 z"
       id="path3684"
       transform="translate(1.5453229e-5,952.36216)" />
  </g>
</svg>
