<?xml version="1.0" encoding="UTF-8" standalone="no"?>
<!-- Created with Inkscape (http://www.inkscape.org/) -->
<svg
   xmlns:dc="http://purl.org/dc/elements/1.1/"
   xmlns:cc="http://web.resource.org/cc/"
   xmlns:rdf="http://www.w3.org/1999/02/22-rdf-syntax-ns#"
   xmlns:svg="http://www.w3.org/2000/svg"
   xmlns="http://www.w3.org/2000/svg"
   xmlns:sodipodi="http://sodipodi.sourceforge.net/DTD/sodipodi-0.dtd"
   xmlns:inkscape="http://www.inkscape.org/namespaces/inkscape"
   width="400.6875"
   height="612"
   id="svg2"
   sodipodi:version="0.32"
   inkscape:version="0.45"
   sodipodi:docname="uranus.svg"
   sodipodi:docbase="/home/psycho/Desktop/jupiter-font"
   inkscape:output_extension="org.inkscape.output.svg.inkscape"
   version="1.0"
   sodipodi:modified="true">
  <defs
     id="defs4" />
  <sodipodi:namedview
     id="base"
     pagecolor="#ffffff"
     bordercolor="#666666"
     borderopacity="1.0"
     gridtolerance="10000"
     guidetolerance="10"
     objecttolerance="10"
     inkscape:pageopacity="0.0"
     inkscape:pageshadow="2"
     inkscape:zoom="0.5"
     inkscape:cx="-178.31514"
     inkscape:cy="144.49246"
     inkscape:document-units="px"
     inkscape:current-layer="layer1"
     inkscape:window-width="872"
     inkscape:window-height="622"
     inkscape:window-x="470"
     inkscape:window-y="389" />
  <metadata
     id="metadata7">
    <rdf:RDF>
      <cc:Work
         rdf:about="">
        <dc:format>image/svg+xml</dc:format>
        <dc:type
           rdf:resource="http://purl.org/dc/dcmitype/StillImage" />
      </cc:Work>
    </rdf:RDF>
  </metadata>
  <g
     inkscape:label="Layer 1"
     inkscape:groupmode="layer"
     id="layer1"
     transform="translate(-3.066123e-5,-531.3497)">
    <path
       style="opacity:1;color:#000000;fill:#000000;fill-opacity:1;fill-rule:nonzero;stroke:none;stroke-width:1.5;stroke-linecap:round;stroke-linejoin:round;marker:none;marker-start:none;marker-mid:none;marker-end:none;stroke-miterlimit:4;stroke-dasharray:none;stroke-dashoffset:0;stroke-opacity:1;visibility:visible;display:inline;overflow:visible;enable-background:accumulate"
       d="M 202,-120.3125 C 171.84865,-120.3125 145.235,-67.49121 129.375,12.96875 C 53.787165,41.643912 -1.0168641e-16,114.74254 0,200.34375 C 0,288.6469 57.232329,363.65924 136.59375,390.3125 C 152.70533,452.53921 176.04301,491.6875 202,491.6875 C 228.12926,491.6875 251.59708,452.00988 267.71875,389.0625 C 345.20438,361.37507 400.6875,287.30562 400.6875,200.34375 C 400.6875,116.10132 348.60479,43.975586 274.90625,14.375 C 259.08051,-66.882417 232.32825,-120.3125 202,-120.3125 z M 192,-9.9375 C 198.47412,-9.9374999 204.71941,-6.3562031 210.5625,0.25 C 207.18003,0.079927826 203.76822,-2.0575647e-15 200.34375,0 C 190.69894,2.8732036e-15 181.21966,0.71166292 171.9375,2.03125 C 178.21074,-5.7118772 184.96618,-9.9375 192,-9.9375 z M 175.3125,399.15625 C 183.51522,400.18031 191.86503,400.6875 200.34375,400.6875 C 202.64076,400.6875 204.94033,400.63932 207.21875,400.5625 C 202.35847,404.9865 197.25729,407.34375 192,407.34375 C 186.20735,407.34375 180.61297,404.49164 175.3125,399.15625 z "
       transform="translate(3.066123e-5,651.6622)"
       id="path2160" />
  </g>
</svg>
